<?xml version="1.0" encoding="UTF-8" standalone="no"?>
<!DOCTYPE svg PUBLIC "-//W3C//DTD SVG 20010904//EN"
"http://www.w3.org/TR/2001/REC-SVG-20010904/DTD/svg10.dtd">
<!-- Created with Sodipodi ("http://www.sodipodi.com/") -->
<svg
   id="svg548"
   sodipodi:version="0.32"
   width="400pt"
   height="400pt"
   sodipodi:docbase="/var/www/html/svg_gallery/svg/arrows"
   sodipodi:docname="arrow09_4.svg"
   inkscape:version="0.38.1"
   xmlns="http://www.w3.org/2000/svg"
   xmlns:inkscape="http://www.inkscape.org/namespaces/inkscape"
   xmlns:sodipodi="http://sodipodi.sourceforge.net/DTD/sodipodi-0.dtd"
   xmlns:xlink="http://www.w3.org/1999/xlink">
  <defs
     id="defs550">
    <linearGradient
       id="linearGradient834">
      <stop
         style="stop-color:#ffffff;stop-opacity:0.40000001;"
         offset="0.0000000"
         id="stop835" />
      <stop
         style="stop-color:#ffffff;stop-opacity:0.10000000;"
         offset="1.0000000"
         id="stop836" />
    </linearGradient>
    <linearGradient
       xlink:href="#linearGradient834"
       id="linearGradient837" />
  </defs>
  <sodipodi:namedview
     id="base"
     showgrid="true"
     inkscape:zoom="0.90750000"
     inkscape:cx="200.77135"
     inkscape:cy="184.36733"
     inkscape:window-width="640"
     inkscape:window-height="500"
     inkscape:window-x="387"
     inkscape:window-y="61" />
  <g
     id="g836">
    <path
       style="fill-opacity:0.25000000;fill-rule:evenodd;stroke-width:3.7500000;fill:#000000;"
       d="M 471.08383,195.82454 C 471.05264,196.61018 470.90459,197.26497 470.64633,197.82454 C 462.38186,215.73087 371.49007,188.19955 371.49007,188.19954 C 371.49007,188.19954 377.00212,467.80285 370.11507,480.19954 C 363.22802,492.59624 203.65837,492.65874 196.77132,480.26204 C 189.88428,467.86535 195.39632,188.23079 195.39632,188.23079 C 195.39633,188.23078 104.47330,215.79337 96.208829,197.88704 C 88.122049,180.36566 193.46109,48.194459 280.58382,46.387039 L 280.58382,46.324539 C 282.47907,46.235699 284.38835,46.316079 286.30257,46.355789 C 370.64290,48.105479 472.02926,172.01025 471.08383,195.82454 z "
       id="path833"
       sodipodi:nodetypes="ccccccccccc" />
    <path
       style="fill:#0000ff;fill-rule:evenodd;stroke:#000000;stroke-width:10.000000;stroke-linejoin:round;stroke-dasharray:none;"
       d="M 456.43967,182.63885 C 456.40848,183.42449 456.26043,184.07928 456.00217,184.63885 C 447.73770,202.54518 356.84591,175.01386 356.84591,175.01385 C 356.84591,175.01385 362.35796,454.61715 355.47091,467.01385 C 348.58386,479.41054 189.01421,479.47304 182.12716,467.07635 C 175.24012,454.67965 180.75216,175.04510 180.75216,175.04510 C 180.75217,175.04509 89.829131,202.60768 81.564661,184.70135 C 73.477881,167.17997 178.81693,35.008774 265.93966,33.201354 L 265.93966,33.138854 C 267.83491,33.050014 269.74419,33.130394 271.65841,33.170104 C 355.99874,34.919794 457.38510,158.82456 456.43967,182.63885 z "
       id="path831"
       sodipodi:nodetypes="ccccccccccc" />
    <path
       style="fill:url(#linearGradient837);fill-opacity:1;fill-rule:evenodd;stroke-width:1.0000000pt;"
       d="M 184.27434,455.66737 C 175.32117,459.79960 188.54815,182.77203 181.86387,171.40428 C 173.80218,160.03654 109.20547,198.78031 83.723376,182.94010 C 82.345956,176.05304 182.89694,30.047543 290.33495,39.689423 C 225.59666,119.57923 199.42586,388.17426 184.27434,455.66737 z "
       id="path832"
       sodipodi:nodetypes="czccc" />
  </g>

  <rdf:RDF 
   xmlns="http://web.resource.org/cc/"
   xmlns:dc="http://purl.org/dc/elements/1.1/"
   xmlns:rdf="http://www.w3.org/1999/02/22-rdf-syntax-ns#">
  <Work rdf:about="">
    <dc:title>Clipart by Nicu Buculei - arrow08_4</dc:title>
    <dc:rights>
       <Agent>
         <dc:title>Nicu Buculei</dc:title>
       </Agent>
    </dc:rights>
    <dc:type rdf:resource="http://purl.org/dc/dcmitype/StillImage" />
    <license rdf:resource="http://web.resource.org/cc/PublicDomain" />
  </Work>
   
  <License rdf:about="http://web.resource.org/cc/PublicDomain">
     <permits rdf:resource="http://web.resource.org/cc/Reproduction" />
     <permits rdf:resource="http://web.resource.org/cc/Distribution" />
     <permits rdf:resource="http://web.resource.org/cc/DerivativeWorks" />
  </License>

</rdf:RDF>
</svg>
