<?xml version="1.0" encoding="UTF-8" standalone="no"?>
<!DOCTYPE svg PUBLIC "-//W3C//DTD SVG 20010904//EN"
"http://www.w3.org/TR/2001/REC-SVG-20010904/DTD/svg10.dtd">
<!-- Created with Sodipodi ("http://www.sodipodi.com/") -->
<svg
   id="svg548"
   sodipodi:version="0.32"
   width="400pt"
   height="400pt"
   sodipodi:docbase="/var/www/html/svg_gallery/svg/arrows"
   sodipodi:docname="arrow09_3.svg"
   inkscape:version="0.38.1"
   xmlns="http://www.w3.org/2000/svg"
   xmlns:inkscape="http://www.inkscape.org/namespaces/inkscape"
   xmlns:sodipodi="http://sodipodi.sourceforge.net/DTD/sodipodi-0.dtd"
   xmlns:xlink="http://www.w3.org/1999/xlink">
  <defs
     id="defs550">
    <linearGradient
       id="linearGradient834">
      <stop
         style="stop-color:#ffffff;stop-opacity:0.40000001;"
         offset="0.0000000"
         id="stop835" />
      <stop
         style="stop-color:#ffffff;stop-opacity:0.10000000;"
         offset="1.0000000"
         id="stop836" />
    </linearGradient>
    <linearGradient
       xlink:href="#linearGradient834"
       id="linearGradient837" />
  </defs>
  <sodipodi:namedview
     id="base"
     showgrid="true"
     inkscape:zoom="0.90750000"
     inkscape:cx="200.00000"
     inkscape:cy="201.15563"
     inkscape:window-width="640"
     inkscape:window-height="500"
     inkscape:window-x="387"
     inkscape:window-y="61" />
  <g
     id="g836">
    <path
       style="fill-opacity:0.25000000;fill-rule:evenodd;stroke-width:3.7500000;fill:#000000;"
       d="M 191.69230,441.78575 C 192.47794,441.75456 193.13273,441.60651 193.69230,441.34825 C 211.59863,433.08378 184.06731,342.19200 184.06730,342.19200 C 184.06730,342.19200 463.67061,347.70405 476.06730,340.81700 C 488.46400,333.92995 488.52650,174.36030 476.12980,167.47325 C 463.73311,160.58621 184.09855,166.09825 184.09855,166.09825 C 184.09854,166.09826 211.66113,75.175222 193.75480,66.910752 C 176.23342,58.823972 44.062215,164.16302 42.254795,251.28575 L 42.192295,251.28575 C 42.103455,253.18100 42.183835,255.09028 42.223545,257.00450 C 43.973235,341.34483 167.87801,442.73118 191.69230,441.78575 z "
       id="path833"
       sodipodi:nodetypes="ccccccccccc" />
    <path
       style="fill:#0000ff;fill-rule:evenodd;stroke:#000000;stroke-width:10.000000;stroke-linejoin:round;stroke-dasharray:none;"
       d="M 176.03343,431.35489 C 176.81907,431.32370 177.47386,431.17565 178.03343,430.91739 C 195.93976,422.65292 168.40844,331.76113 168.40843,331.76113 C 168.40843,331.76113 448.01173,337.27318 460.40843,330.38613 C 472.80512,323.49908 472.86762,163.92943 460.47093,157.04238 C 448.07423,150.15534 168.43968,155.66738 168.43968,155.66738 C 168.43967,155.66739 196.00226,64.744349 178.09593,56.479879 C 160.57455,48.393099 28.403346,153.73215 26.595926,240.85488 L 26.533426,240.85488 C 26.444586,242.75013 26.524966,244.65941 26.564676,246.57363 C 28.314366,330.91396 152.21914,432.30032 176.03343,431.35489 z "
       id="path831"
       sodipodi:nodetypes="ccccccccccc" />
    <path
       style="fill:url(#linearGradient837);fill-opacity:1;fill-rule:evenodd;stroke-width:1.0000000pt;"
       d="M 176.30854,61.983471 C 159.77962,56.473829 24.793388,163.91184 31.680441,250.68871 C 38.567493,337.46557 161.15703,428.37465 170.79890,424.24242 C 188.70523,417.35537 168.04408,347.10744 161.15702,329.20110 C 163.91184,320.93664 155.64738,258.95317 246.55647,256.19835 C 144.62810,223.14050 169.42149,163.91185 159.77962,157.02480 C 172.17631,117.07989 180.44077,70.247934 176.30854,61.983471 z "
       id="path838"
       sodipodi:nodetypes="ccccccc" />
  </g>

  <rdf:RDF 
   xmlns="http://web.resource.org/cc/"
   xmlns:dc="http://purl.org/dc/elements/1.1/"
   xmlns:rdf="http://www.w3.org/1999/02/22-rdf-syntax-ns#">
  <Work rdf:about="">
    <dc:title>Clipart by Nicu Buculei - arrow08_4</dc:title>
    <dc:rights>
       <Agent>
         <dc:title>Nicu Buculei</dc:title>
       </Agent>
    </dc:rights>
    <dc:type rdf:resource="http://purl.org/dc/dcmitype/StillImage" />
    <license rdf:resource="http://web.resource.org/cc/PublicDomain" />
  </Work>
   
  <License rdf:about="http://web.resource.org/cc/PublicDomain">
     <permits rdf:resource="http://web.resource.org/cc/Reproduction" />
     <permits rdf:resource="http://web.resource.org/cc/Distribution" />
     <permits rdf:resource="http://web.resource.org/cc/DerivativeWorks" />
  </License>

</rdf:RDF>
</svg>
