<?xml version="1.0" encoding="UTF-8"?>
<svg viewBox="0 0 203.04 140.41" xmlns="http://www.w3.org/2000/svg">
 <defs>
  <filter id="a">
   <feGaussianBlur stdDeviation="4.328346"/>
  </filter>
 </defs>
 <g fill="none" stroke="#000" stroke-width="6.8">
  <path d="m194.48 95.741c-63.337-11.324-101.35-9.3799-125.16 0 4.0874 14.004 19.27 24.528 33.234 36.77-27.399-13.103-55.193-25.078-84.146-36.062 8.3363-34.826 36.765-54.136 60.811-78.489-3.5202 8.1896-8.6488 17.164-12.088 25.321-1.7246 4.0907-2.4907 7.798-1.3474 10.742 41.719-13.894 83.439-13.43 125.16-2.8284l3.5356 44.548z" filter="url(#a)"/>
  <path d="m185.19 85.027c-63.337-11.324-101.35-9.3799-125.16 0 4.0874 14.004 19.27 24.528 33.234 36.77-27.399-13.103-55.193-25.078-84.146-36.062 8.3363-34.826 36.765-54.136 60.811-78.489-3.5202 8.1896-8.6488 17.164-12.088 25.321-1.7246 4.0907-2.4907 7.7979-1.3474 10.742 41.719-13.894 83.439-13.43 125.16-2.8284l3.5355 44.548z"/>
 </g>
</svg>
