<svg id="svg" version="1.1" width="400" height="400" viewBox="0 0 400 400" xmlns="http://www.w3.org/2000/svg" xmlns:xlink="http://www.w3.org/1999/xlink" ><g id="svgg"><path id="path0" d="M252.075 11.448 C 252.447 11.558,252.842 11.953,252.952 12.325 C 253.099 12.814,253.132 12.781,253.072 12.205 C 253.025 11.738,252.662 11.375,252.195 11.328 C 251.619 11.268,251.586 11.301,252.075 11.448 M115.680 15.680 C 115.416 15.944,115.200 16.400,115.200 16.694 C 115.200 17.395,116.606 16.682,116.940 15.811 C 117.221 15.081,116.368 14.992,115.680 15.680 M266.075 15.448 C 266.447 15.558,266.836 16.043,266.941 16.525 C 267.100 17.258,267.120 17.239,267.066 16.404 C 267.021 15.728,266.743 15.382,266.200 15.327 C 265.624 15.269,265.589 15.302,266.075 15.448 M269.200 17.971 C 269.200 18.427,269.335 18.814,269.500 18.831 C 269.665 18.847,270.103 18.920,270.473 18.991 C 271.007 19.094,271.080 18.945,270.827 18.261 C 270.396 17.093,269.200 16.880,269.200 17.971 M111.200 19.833 C 111.200 20.182,111.414 20.395,111.675 20.308 C 112.417 20.061,112.540 19.200,111.833 19.200 C 111.485 19.200,111.200 19.485,111.200 19.833 M272.075 19.448 C 272.447 19.558,272.836 20.043,272.941 20.525 C 273.100 21.258,273.120 21.239,273.066 20.404 C 273.021 19.728,272.743 19.382,272.200 19.327 C 271.624 19.269,271.589 19.302,272.075 19.448 M279.072 27.442 C 279.189 27.749,279.446 28.000,279.643 28.000 C 279.839 28.000,280.000 28.191,280.000 28.424 C 280.000 28.657,279.792 28.719,279.538 28.562 C 279.252 28.385,279.185 28.452,279.362 28.738 C 279.519 28.992,280.009 29.200,280.451 29.200 C 281.703 29.200,281.272 27.526,279.929 27.169 C 279.102 26.950,278.906 27.012,279.072 27.442 M103.611 29.787 C 103.343 30.109,103.217 30.604,103.331 30.887 C 103.463 31.217,103.548 31.158,103.568 30.720 C 103.586 30.346,103.915 29.856,104.300 29.632 C 104.685 29.408,104.797 29.219,104.549 29.212 C 104.301 29.205,103.879 29.464,103.611 29.787 M282.652 33.282 C 282.696 35.068,282.839 35.423,283.652 35.772 C 284.173 35.995,284.732 36.363,284.894 36.589 C 285.056 36.815,285.191 36.145,285.194 35.100 C 285.200 33.338,285.127 33.200,284.200 33.200 C 283.400 33.200,283.200 33.000,283.200 32.200 C 283.200 31.650,283.065 31.200,282.900 31.200 C 282.735 31.200,282.623 32.137,282.652 33.282 M101.680 33.680 C 100.930 34.430,101.036 35.834,101.796 35.204 C 102.123 34.932,102.294 34.552,102.175 34.359 C 102.056 34.167,102.208 34.105,102.513 34.222 C 102.837 34.346,103.067 34.179,103.067 33.817 C 103.067 33.081,102.350 33.010,101.680 33.680 M137.338 36.827 C 136.867 37.002,136.371 37.323,136.235 37.543 C 136.100 37.762,135.316 38.163,134.494 38.434 C 130.915 39.612,128.202 42.276,125.853 46.917 L 124.104 50.374 124.227 55.016 C 124.356 59.881,124.660 60.795,126.149 60.806 C 126.651 60.810,126.817 60.933,126.554 61.106 C 125.110 62.057,126.176 64.800,127.989 64.800 C 128.518 64.800,128.785 65.132,128.873 65.900 C 128.972 66.755,129.238 67.028,130.069 67.124 C 130.657 67.192,131.602 67.711,132.169 68.278 L 133.200 69.309 133.200 68.255 C 133.200 67.404,133.012 67.200,132.228 67.200 C 131.524 67.200,131.220 66.951,131.128 66.300 C 131.046 65.722,130.678 65.354,130.100 65.272 C 128.928 65.106,128.867 63.263,130.000 62.293 C 130.676 61.714,130.800 61.113,130.800 58.404 C 130.800 53.687,134.200 48.376,138.544 46.306 C 139.345 45.925,140.000 45.430,140.000 45.206 C 140.000 44.951,142.074 44.800,145.600 44.800 C 150.251 44.800,151.200 44.899,151.200 45.386 C 151.200 46.297,152.541 46.800,154.974 46.800 C 156.933 46.800,157.200 46.704,157.200 46.000 C 157.200 45.560,157.223 45.068,157.252 44.906 C 157.281 44.744,156.786 44.326,156.152 43.976 C 155.323 43.519,154.965 42.985,154.875 42.070 C 154.806 41.372,154.608 40.800,154.435 40.800 C 154.262 40.800,153.328 40.263,152.360 39.607 C 151.392 38.951,150.205 38.411,149.723 38.407 C 149.240 38.403,148.590 38.035,148.277 37.589 C 147.662 36.710,139.240 36.124,137.338 36.827 M284.714 38.136 C 284.461 39.462,285.048 40.799,285.887 40.806 C 286.494 40.811,286.511 40.870,286.000 41.200 C 285.475 41.539,285.480 41.589,286.038 41.594 C 286.955 41.603,287.001 42.961,286.992 69.800 C 286.984 90.662,286.743 97.829,286.108 96.079 C 285.963 95.678,285.813 95.703,285.457 96.190 C 285.062 96.730,284.857 96.569,284.045 95.082 L 283.094 93.342 282.230 94.171 C 281.754 94.627,280.473 95.833,279.383 96.851 C 278.292 97.869,276.419 99.714,275.219 100.951 C 273.667 102.552,272.738 103.200,271.994 103.200 C 271.420 103.200,270.017 103.650,268.877 104.200 C 267.737 104.750,266.443 105.200,266.002 105.200 C 265.413 105.200,265.200 105.466,265.200 106.200 C 265.200 107.141,265.075 107.200,263.070 107.200 C 261.315 107.200,260.774 107.376,260.000 108.200 C 259.453 108.783,258.615 109.200,257.992 109.200 C 257.405 109.200,256.588 109.571,256.178 110.025 C 255.639 110.620,255.205 110.763,254.616 110.538 C 254.167 110.367,244.890 110.092,234.000 109.927 C 223.110 109.762,211.725 109.521,208.700 109.392 L 203.200 109.157 203.200 108.178 C 203.200 107.228,203.116 107.200,200.200 107.200 C 197.800 107.200,197.200 107.080,197.200 106.600 C 197.200 105.904,196.284 105.820,195.174 106.414 C 194.532 106.758,194.400 106.695,194.400 106.047 C 194.400 105.618,194.230 105.207,194.022 105.133 C 193.186 104.838,192.938 101.801,193.488 98.600 C 194.236 94.256,193.960 92.891,192.285 92.633 C 190.917 92.423,152.766 92.039,122.116 91.926 C 102.416 91.854,103.029 91.920,103.417 89.918 C 103.692 88.502,103.177 86.400,102.555 86.400 C 102.189 86.400,102.000 85.931,102.000 85.024 C 102.000 84.267,101.814 83.532,101.587 83.392 C 101.360 83.251,101.220 82.116,101.277 80.868 C 101.333 79.621,101.304 76.530,101.212 74.000 L 101.043 69.400 100.800 73.600 C 100.618 76.743,100.521 75.031,100.414 66.800 C 100.336 60.750,100.167 56.430,100.038 57.200 C 99.898 58.044,99.716 56.613,99.582 53.600 C 99.459 50.850,99.368 58.950,99.379 71.600 L 99.400 94.600 102.400 94.828 C 104.050 94.953,104.945 95.088,104.389 95.128 C 101.657 95.323,100.828 97.526,102.700 99.615 L 103.800 100.843 147.500 100.812 L 191.200 100.781 191.200 101.990 L 191.200 103.200 116.200 103.200 L 41.200 103.200 41.200 104.186 C 41.200 105.158,41.147 105.173,37.300 105.286 C 33.600 105.394,33.393 105.446,33.272 106.300 C 33.159 107.094,32.913 107.200,31.172 107.200 C 29.335 107.200,29.200 107.269,29.200 108.200 C 29.200 109.000,29.000 109.200,28.200 109.200 C 27.400 109.200,27.200 109.400,27.200 110.200 C 27.200 111.000,27.000 111.200,26.200 111.200 C 25.400 111.200,25.200 111.400,25.200 112.200 C 25.200 113.133,25.067 113.200,23.200 113.200 C 21.262 113.200,21.200 113.236,21.200 114.353 C 21.200 115.165,20.966 115.568,20.411 115.713 C 19.851 115.859,19.546 116.395,19.360 117.560 C 19.138 118.945,18.950 119.200,18.149 119.200 C 17.403 119.200,17.200 119.414,17.200 120.200 C 17.200 121.000,17.000 121.200,16.200 121.200 C 15.408 121.200,15.200 121.402,15.200 122.172 C 15.200 122.876,14.951 123.180,14.300 123.272 C 13.446 123.393,13.394 123.600,13.286 127.300 C 13.173 131.147,13.158 131.200,12.186 131.200 C 11.227 131.200,11.200 131.280,11.200 134.172 C 11.200 136.950,11.141 137.153,10.300 137.272 L 9.400 137.400 9.400 196.000 L 9.400 254.600 10.300 254.728 C 11.141 254.847,11.200 255.050,11.200 257.828 C 11.200 260.731,11.223 260.800,12.200 260.800 C 13.178 260.800,13.200 260.867,13.200 263.800 C 13.200 266.733,13.222 266.800,14.200 266.800 C 15.133 266.800,15.200 266.933,15.200 268.800 C 15.200 270.667,15.267 270.800,16.200 270.800 C 17.000 270.800,17.200 271.000,17.200 271.800 C 17.200 272.600,17.400 272.800,18.200 272.800 C 19.000 272.800,19.200 273.000,19.200 273.800 C 19.200 274.600,19.400 274.800,20.200 274.800 C 21.133 274.800,21.200 274.933,21.200 276.800 L 21.200 278.800 23.300 278.816 C 25.379 278.831,25.388 278.837,24.200 279.354 C 21.850 280.379,21.805 280.887,23.888 282.940 C 24.925 283.963,26.052 284.800,26.392 284.800 C 26.732 284.800,27.188 285.204,27.405 285.698 C 27.622 286.191,28.160 286.657,28.600 286.731 C 29.040 286.806,29.582 287.077,29.804 287.334 C 30.779 288.459,33.601 290.384,34.652 290.641 C 35.283 290.795,36.309 291.344,36.931 291.861 C 37.757 292.547,38.558 292.800,39.905 292.800 C 41.266 292.800,41.999 293.035,42.706 293.700 L 43.664 294.600 69.332 294.807 C 98.066 295.038,97.321 295.101,98.277 292.365 C 98.628 291.362,98.761 283.849,98.777 264.047 C 98.800 237.341,98.808 237.082,99.644 235.728 C 100.275 234.709,100.570 233.331,100.808 230.294 C 101.077 226.880,101.262 226.117,101.964 225.549 C 102.429 225.172,102.800 224.404,102.800 223.818 C 102.800 223.227,103.239 222.324,103.800 221.764 C 104.350 221.214,104.800 220.527,104.800 220.237 C 104.800 219.947,105.340 219.031,106.000 218.200 C 106.660 217.369,107.203 216.400,107.207 216.045 C 107.215 215.329,108.825 213.661,110.142 213.004 C 110.610 212.771,111.055 212.255,111.132 211.859 C 111.266 211.162,112.471 209.619,114.262 207.851 C 114.736 207.383,115.974 206.550,117.014 206.000 C 118.054 205.450,119.407 204.505,120.021 203.900 C 120.667 203.265,121.581 202.800,122.185 202.800 C 122.761 202.800,123.720 202.449,124.316 202.020 C 124.912 201.591,126.201 201.127,127.180 200.989 C 128.160 200.851,129.423 200.498,129.988 200.206 C 132.601 198.855,135.322 198.800,199.316 198.800 L 262.885 198.800 264.073 197.800 C 264.727 197.250,265.653 196.799,266.131 196.798 C 267.128 196.796,270.256 195.286,271.835 194.044 C 272.425 193.580,273.358 193.200,273.908 193.200 C 274.461 193.200,275.323 192.753,275.835 192.200 C 276.433 191.555,277.194 191.200,277.981 191.200 C 279.051 191.200,279.200 191.062,279.200 190.075 C 279.200 188.928,281.197 186.530,281.718 187.051 C 282.131 187.465,283.200 186.382,283.200 185.551 C 283.200 185.077,283.483 184.800,283.968 184.800 C 284.496 184.800,284.819 184.426,284.999 183.605 C 285.143 182.948,285.698 182.067,286.231 181.647 C 286.764 181.228,287.200 180.579,287.200 180.205 C 287.200 179.831,287.560 179.431,288.000 179.316 C 288.521 179.180,288.800 178.770,288.800 178.143 C 288.800 177.499,289.113 177.061,289.746 176.820 C 290.522 176.526,290.727 176.104,290.883 174.481 C 290.991 173.358,291.446 171.978,291.936 171.289 L 292.800 170.077 292.800 109.426 L 292.800 48.776 291.851 46.488 C 291.329 45.230,290.786 43.550,290.643 42.755 C 290.107 39.762,288.440 39.498,287.607 42.274 C 287.333 43.185,287.262 42.930,287.234 40.933 C 287.191 37.840,286.946 37.200,285.804 37.200 C 285.167 37.200,284.840 37.481,284.714 38.136 M99.467 41.467 C 99.320 41.613,99.205 43.188,99.212 44.967 C 99.222 47.484,99.320 48.035,99.658 47.454 C 99.917 47.008,99.986 45.919,99.830 44.741 C 99.570 42.780,100.405 40.789,100.936 42.104 C 101.054 42.396,101.150 42.312,101.168 41.900 C 101.200 41.210,100.023 40.911,99.467 41.467 M157.200 49.724 C 157.200 50.626,157.374 50.800,158.280 50.800 C 159.187 50.800,159.267 50.720,158.780 50.300 C 158.461 50.025,157.975 49.541,157.700 49.224 C 157.281 48.741,157.200 48.822,157.200 49.724 M100.120 52.000 C 100.120 53.210,100.195 53.705,100.287 53.100 C 100.378 52.495,100.378 51.505,100.287 50.900 C 100.195 50.295,100.120 50.790,100.120 52.000 M158.000 58.000 C 156.732 59.268,156.884 60.667,158.187 59.719 C 158.731 59.323,159.181 58.595,159.187 58.100 C 159.203 56.994,159.021 56.979,158.000 58.000 M99.883 61.695 C 99.787 62.193,99.705 61.880,99.701 61.000 C 99.696 60.120,99.775 59.713,99.875 60.095 C 99.975 60.478,99.979 61.198,99.883 61.695 M155.200 64.076 C 155.200 64.847,155.260 64.877,155.700 64.322 C 155.975 63.976,156.470 63.596,156.800 63.478 C 157.132 63.359,156.908 63.249,156.300 63.232 C 155.425 63.206,155.200 63.379,155.200 64.076 M100.928 66.000 C 100.928 67.430,101.001 68.015,101.089 67.300 C 101.178 66.585,101.178 65.415,101.089 64.700 C 101.001 63.985,100.928 64.570,100.928 66.000 M153.467 65.467 C 153.052 65.882,153.153 67.200,153.600 67.200 C 153.820 67.200,154.000 66.995,154.000 66.744 C 154.000 66.493,154.315 66.049,154.700 65.757 C 155.353 65.261,155.345 65.225,154.567 65.213 C 154.108 65.206,153.613 65.320,153.467 65.467 M134.334 69.532 C 134.628 69.729,134.853 70.004,134.834 70.145 C 134.718 71.011,134.924 71.200,135.987 71.200 C 137.820 71.200,137.058 69.445,135.157 69.287 C 134.257 69.212,133.980 69.295,134.334 69.532 M100.682 82.900 C 100.587 83.395,100.509 82.990,100.509 82.000 C 100.509 81.010,100.587 80.605,100.682 81.100 C 100.778 81.595,100.778 82.405,100.682 82.900 M192.716 106.452 C 192.467 106.606,192.520 106.779,192.855 106.900 C 194.057 107.335,190.215 107.670,187.693 107.350 L 185.000 107.009 187.200 106.863 C 188.848 106.754,189.199 106.633,188.600 106.380 C 188.074 106.158,188.713 106.069,190.462 106.121 C 191.926 106.165,192.940 106.313,192.716 106.452 M345.102 106.266 C 345.379 106.377,345.522 106.603,345.420 106.767 C 345.318 106.932,345.480 107.067,345.779 107.067 C 346.079 107.067,346.232 106.827,346.119 106.533 C 346.007 106.240,345.619 106.014,345.257 106.032 C 344.838 106.052,344.782 106.137,345.102 106.266 M359.483 111.466 C 359.338 111.701,359.575 112.215,360.009 112.609 C 360.774 113.301,360.800 113.295,360.800 112.438 C 360.800 111.951,360.635 111.655,360.434 111.779 C 360.233 111.903,359.996 111.788,359.907 111.522 C 359.798 111.194,359.662 111.176,359.483 111.466 M362.923 113.745 C 363.076 114.141,363.200 114.618,363.200 114.805 C 363.200 114.992,363.605 115.202,364.100 115.272 C 364.678 115.354,365.046 115.722,365.128 116.300 C 365.210 116.878,365.532 117.200,366.028 117.200 C 367.219 117.200,366.972 116.749,364.723 114.812 C 363.539 113.792,362.766 113.333,362.923 113.745 M367.200 118.200 C 367.200 118.933,367.413 119.200,368.000 119.200 C 368.577 119.200,368.800 119.467,368.800 120.155 C 368.800 120.896,369.052 121.146,369.929 121.275 C 371.358 121.485,371.252 119.752,369.802 119.201 C 369.311 119.014,368.812 118.488,368.692 118.031 C 368.378 116.828,367.200 116.961,367.200 118.200 M376.075 129.471 C 376.447 129.569,376.831 129.953,376.929 130.325 C 377.055 130.803,377.121 130.738,377.154 130.100 C 377.189 129.407,376.993 129.211,376.300 129.246 C 375.662 129.279,375.597 129.345,376.075 129.471 M377.865 132.970 C 376.536 134.042,376.500 135.698,377.800 135.942 C 378.240 136.025,378.732 136.297,378.894 136.546 C 379.056 136.796,379.191 136.361,379.194 135.580 C 379.197 134.799,379.417 133.943,379.683 133.677 C 380.774 132.586,379.132 131.948,377.865 132.970 M380.493 136.488 C 378.884 138.426,378.895 138.067,378.668 199.508 L 378.450 258.416 377.425 260.583 C 376.861 261.775,376.400 263.231,376.400 263.817 C 376.400 264.404,375.950 265.419,375.400 266.073 C 374.850 266.727,374.397 267.563,374.393 267.931 C 374.386 268.589,372.559 271.625,371.464 272.800 C 371.156 273.130,370.622 273.954,370.277 274.632 C 369.547 276.065,365.708 280.077,363.413 281.805 C 362.540 282.462,361.510 283.310,361.123 283.690 C 360.737 284.069,359.966 284.494,359.410 284.633 C 358.855 284.773,358.400 285.018,358.400 285.179 C 358.400 285.584,356.527 286.400,355.597 286.400 C 355.177 286.400,354.420 286.827,353.916 287.350 C 353.393 287.892,352.315 288.403,351.401 288.541 C 350.522 288.673,349.587 289.077,349.323 289.438 C 349.046 289.817,348.117 290.155,347.122 290.238 C 346.175 290.318,342.997 290.583,340.061 290.828 C 337.124 291.073,323.624 291.331,310.061 291.401 C 261.163 291.653,198.025 291.663,197.629 291.418 C 196.703 290.846,196.498 297.971,197.419 298.699 C 197.628 298.864,231.640 298.910,273.000 298.800 L 348.200 298.600 350.000 297.742 C 350.990 297.270,352.593 296.788,353.561 296.672 C 354.530 296.555,355.790 296.114,356.361 295.693 C 356.933 295.271,358.073 294.800,358.895 294.646 C 359.762 294.483,360.566 294.036,360.809 293.583 C 361.083 293.072,361.646 292.800,362.432 292.800 C 363.183 292.800,364.013 292.424,364.636 291.800 C 365.186 291.250,365.861 290.800,366.135 290.800 C 366.410 290.800,367.469 289.916,368.488 288.836 C 369.507 287.756,370.717 286.753,371.175 286.608 C 371.634 286.462,372.260 285.861,372.566 285.272 C 372.872 284.682,373.924 283.390,374.903 282.399 C 375.882 281.409,376.806 280.211,376.957 279.736 C 377.107 279.262,377.484 278.777,377.794 278.658 C 378.104 278.539,378.565 277.674,378.817 276.737 C 379.069 275.800,379.509 274.845,379.794 274.616 C 380.079 274.387,380.516 273.555,380.765 272.767 C 381.014 271.979,381.574 270.636,382.009 269.783 C 382.444 268.929,382.800 267.877,382.800 267.445 C 382.800 267.014,383.255 265.343,383.810 263.733 L 384.821 260.806 384.710 202.503 L 384.600 144.200 383.752 142.800 C 383.285 142.030,382.788 140.503,382.646 139.406 C 382.354 137.138,381.224 135.607,380.493 136.488 M293.813 163.979 C 293.461 164.548,293.910 165.200,294.653 165.200 C 295.003 165.200,295.204 164.919,295.129 164.533 C 294.974 163.730,294.175 163.393,293.813 163.979 M58.417 247.415 C 58.976 247.921,59.283 247.945,60.152 247.549 C 61.070 247.131,61.328 247.181,62.130 247.934 C 62.637 248.410,63.401 248.800,63.828 248.800 C 64.953 248.800,73.263 252.938,74.162 253.946 C 74.602 254.439,75.404 254.800,76.062 254.800 C 76.930 254.800,77.200 254.988,77.200 255.592 C 77.200 256.104,77.554 256.474,78.200 256.636 C 78.955 256.825,79.200 257.149,79.200 257.958 C 79.200 258.714,79.786 259.607,81.188 260.988 C 82.634 262.413,83.065 263.080,82.769 263.437 C 82.476 263.790,82.733 264.350,83.681 265.426 C 84.406 266.250,85.270 267.642,85.600 268.520 C 86.408 270.671,87.440 271.287,88.333 270.152 C 88.965 269.349,89.023 269.713,89.443 277.152 C 89.686 281.469,89.744 285.158,89.571 285.351 C 88.237 286.844,43.584 286.410,41.830 284.888 C 41.374 284.491,40.460 284.119,39.800 284.060 C 39.140 284.001,38.150 283.605,37.600 283.180 C 37.050 282.755,36.015 282.145,35.300 281.824 C 34.585 281.503,34.000 281.003,34.000 280.713 C 34.000 280.423,33.554 279.915,33.010 279.584 C 32.080 279.020,32.054 278.917,32.592 277.880 C 32.957 277.178,33.226 275.071,33.333 272.088 C 33.489 267.727,34.051 265.200,34.864 265.200 C 35.049 265.200,35.200 264.691,35.200 264.070 C 35.200 263.381,35.591 262.572,36.200 262.000 C 36.772 261.463,37.200 260.613,37.200 260.015 C 37.200 259.290,37.813 258.366,39.200 257.000 C 40.651 255.571,41.200 254.724,41.200 253.915 C 41.200 252.844,41.278 252.800,43.200 252.800 C 45.024 252.800,45.200 252.718,45.200 251.875 C 45.200 250.244,47.097 248.916,49.800 248.655 C 53.826 248.267,56.395 247.765,56.890 247.270 C 57.494 246.666,57.600 246.676,58.417 247.415 M290.097 304.100 C 288.608 305.959,288.400 308.750,288.400 326.913 C 288.400 341.470,288.296 344.952,287.826 346.077 C 287.502 346.852,287.100 349.886,286.904 353.026 C 286.606 357.820,286.407 358.918,285.479 360.875 C 284.886 362.127,284.400 363.305,284.400 363.494 C 284.400 365.317,276.250 374.842,273.488 376.247 C 272.780 376.607,271.902 377.213,271.538 377.594 C 271.173 377.974,270.147 378.402,269.257 378.545 C 268.366 378.687,267.494 379.046,267.319 379.343 C 266.806 380.211,265.366 380.800,263.758 380.800 C 262.936 380.800,261.951 381.082,261.570 381.427 C 260.139 382.722,255.403 382.813,195.249 382.707 L 135.097 382.600 134.500 381.700 C 133.994 380.939,133.545 380.800,131.580 380.800 C 129.351 380.800,128.000 380.185,128.000 379.171 C 128.000 378.967,127.055 378.798,125.900 378.795 C 123.122 378.787,122.077 378.473,121.786 377.557 C 121.654 377.141,121.202 376.800,120.781 376.800 C 120.293 376.800,119.922 376.428,119.758 375.774 C 119.535 374.887,119.313 374.763,118.121 374.866 C 117.151 374.950,116.483 374.737,115.871 374.150 C 115.392 373.690,114.595 373.186,114.100 373.030 C 113.605 372.874,113.200 372.578,113.200 372.373 C 113.200 372.168,112.930 372.000,112.600 372.000 C 112.270 372.000,112.000 371.752,112.000 371.449 C 112.000 370.518,110.978 369.903,110.463 370.525 C 109.963 371.126,110.566 372.000,111.480 372.000 C 111.766 372.000,112.000 372.248,112.000 372.551 C 112.000 372.854,112.258 373.317,112.574 373.579 C 112.890 373.841,113.269 374.605,113.417 375.276 C 113.574 375.991,113.999 376.579,114.442 376.695 C 114.859 376.804,115.200 377.146,115.200 377.455 C 115.200 377.764,115.687 378.238,116.283 378.509 C 117.368 379.001,117.905 379.408,120.270 381.536 C 123.159 384.135,124.104 384.800,124.905 384.800 C 125.369 384.800,126.174 385.200,126.694 385.688 C 127.438 386.387,128.237 386.610,130.448 386.735 C 132.748 386.865,133.430 387.066,134.210 387.847 C 134.937 388.574,135.599 388.800,136.996 388.800 C 138.067 388.800,139.272 389.091,139.896 389.500 C 141.478 390.536,260.836 390.592,262.418 389.557 C 262.958 389.204,264.458 388.827,265.751 388.720 C 267.488 388.576,268.271 388.312,268.751 387.706 C 269.235 387.094,270.003 386.840,271.777 386.704 C 273.644 386.561,274.277 386.336,274.726 385.661 C 275.044 385.182,275.719 384.800,276.247 384.800 C 276.847 384.800,277.947 384.064,279.239 382.800 C 280.362 381.700,281.430 380.800,281.611 380.800 C 281.793 380.800,282.296 380.350,282.729 379.800 C 283.161 379.250,283.702 378.800,283.931 378.800 C 284.159 378.800,284.472 378.402,284.627 377.915 C 284.781 377.429,285.334 376.695,285.854 376.286 C 286.508 375.771,286.800 375.134,286.800 374.218 C 286.800 373.231,287.003 372.840,287.598 372.685 C 288.037 372.570,288.514 372.144,288.658 371.738 C 288.801 371.332,289.240 370.640,289.633 370.200 C 291.420 368.198,292.693 363.629,292.961 358.258 C 293.102 355.429,293.393 352.786,293.609 352.384 C 294.359 350.983,294.113 309.505,293.340 307.075 C 292.360 303.992,291.106 302.841,290.097 304.100 M239.809 323.572 C 239.664 324.027,239.037 324.458,238.282 324.620 C 237.577 324.771,236.730 325.143,236.400 325.446 C 233.112 328.463,232.469 329.152,232.226 329.918 C 232.072 330.403,231.800 330.800,231.621 330.800 C 231.441 330.800,231.084 331.639,230.825 332.665 C 230.567 333.691,230.006 334.975,229.578 335.519 C 228.313 337.127,228.436 343.270,229.751 344.131 C 230.274 344.474,230.826 345.250,230.979 345.857 C 231.272 347.026,232.917 348.796,233.721 348.806 C 234.068 348.811,234.060 348.901,233.689 349.136 C 233.303 349.381,233.425 349.726,234.189 350.551 C 234.745 351.151,235.200 351.992,235.200 352.421 C 235.200 352.924,235.473 353.200,235.972 353.200 C 236.468 353.200,236.790 353.522,236.872 354.100 C 236.954 354.678,237.322 355.046,237.900 355.128 C 239.046 355.291,239.121 354.200,238.005 353.603 C 237.567 353.368,237.098 352.732,236.961 352.188 C 236.807 351.573,236.428 351.200,235.957 351.200 C 235.127 351.200,234.952 350.408,235.632 349.728 C 235.942 349.418,235.885 348.767,235.432 347.434 C 234.589 344.949,234.639 343.251,235.600 341.800 C 236.037 341.140,236.505 339.769,236.641 338.754 C 236.808 337.510,237.233 336.571,237.944 335.874 C 238.525 335.304,239.990 333.887,241.200 332.724 L 243.400 330.610 250.132 330.605 L 256.864 330.600 257.665 331.700 C 259.153 333.743,260.597 333.212,261.037 330.462 C 261.292 328.867,261.260 328.800,260.251 328.800 C 259.397 328.800,259.200 328.613,259.200 327.800 C 259.200 327.098,258.982 326.800,258.470 326.800 C 258.068 326.800,257.331 326.365,256.832 325.834 C 256.333 325.302,255.503 324.762,254.989 324.633 C 254.474 324.504,253.939 324.039,253.800 323.599 C 253.413 322.381,240.195 322.356,239.809 323.572 M107.272 365.700 C 107.468 367.081,109.200 367.196,109.200 365.828 C 109.200 364.991,109.009 364.800,108.172 364.800 C 107.335 364.800,107.168 364.967,107.272 365.700 " stroke="none" fill="#40599b" fill-rule="evenodd"></path><path id="path1" d="M296.026 106.169 C 295.751 106.500,295.714 106.823,295.935 106.960 C 296.141 107.087,296.518 106.939,296.774 106.631 C 297.049 106.300,297.086 105.977,296.865 105.840 C 296.659 105.713,296.282 105.861,296.026 106.169 M377.290 159.000 C 377.010 166.040,376.426 175.310,375.993 179.600 C 375.560 183.890,375.193 187.760,375.177 188.200 C 375.156 188.787,374.969 188.626,374.475 187.600 C 373.378 185.320,372.275 185.124,371.873 187.135 C 371.575 188.626,369.067 191.116,367.707 191.273 C 367.057 191.347,366.451 191.739,366.239 192.222 C 365.883 193.032,363.578 194.000,362.006 194.000 C 361.563 194.000,361.200 194.233,361.200 194.517 C 361.200 195.378,356.983 197.200,354.991 197.200 C 353.347 197.200,353.200 197.282,353.200 198.200 C 353.200 199.141,353.075 199.200,351.070 199.200 C 349.315 199.200,348.774 199.376,348.000 200.200 L 347.061 201.200 330.161 201.200 L 313.261 201.200 312.073 200.200 C 311.033 199.325,310.504 199.200,307.842 199.200 C 304.864 199.200,304.800 199.179,304.800 198.200 C 304.800 197.238,304.704 197.200,302.244 197.200 C 299.752 197.200,296.077 196.056,296.668 195.465 C 296.814 195.319,296.498 195.197,295.967 195.194 C 295.332 195.190,295.172 195.078,295.502 194.869 C 296.078 194.503,293.671 193.200,292.419 193.200 C 290.761 193.200,290.296 192.778,291.045 191.951 C 291.695 191.232,291.671 191.200,290.462 191.200 C 289.383 191.200,289.200 191.055,289.200 190.200 C 289.200 189.475,288.985 189.200,288.419 189.200 C 285.985 189.200,284.581 187.019,286.061 185.539 C 286.484 185.116,287.001 184.877,287.210 185.006 C 287.420 185.136,287.484 184.964,287.354 184.623 C 287.223 184.283,286.991 184.082,286.838 184.176 C 286.685 184.271,286.342 183.999,286.076 183.573 C 285.552 182.734,286.272 182.586,286.917 183.400 C 287.106 183.640,287.208 183.559,287.169 183.200 C 287.047 182.058,287.205 181.656,288.272 180.388 C 289.158 179.335,289.217 179.139,288.615 179.257 C 288.214 179.336,287.686 179.759,287.443 180.197 C 287.199 180.636,286.595 181.392,286.100 181.878 C 285.557 182.411,285.200 183.245,285.200 183.981 C 285.200 184.981,285.037 185.200,284.295 185.200 C 283.740 185.200,283.237 185.548,282.995 186.100 C 282.778 186.595,282.344 187.000,282.031 187.000 C 281.109 187.000,279.200 189.179,279.200 190.231 C 279.200 191.028,278.999 191.200,278.070 191.200 C 277.381 191.200,276.572 191.591,276.000 192.200 C 275.482 192.752,274.610 193.200,274.056 193.200 C 273.504 193.200,272.679 193.550,272.224 193.978 C 270.928 195.195,266.924 197.200,265.788 197.200 C 265.207 197.200,264.360 197.634,263.835 198.200 L 262.908 199.200 198.305 199.200 L 133.702 199.200 130.639 200.200 C 128.954 200.750,127.266 201.202,126.888 201.205 C 126.509 201.207,125.417 201.657,124.459 202.205 C 123.502 202.752,122.318 203.200,121.829 203.200 C 121.340 203.200,120.517 203.650,120.000 204.200 C 119.483 204.750,118.850 205.200,118.592 205.200 C 118.335 205.200,117.798 205.560,117.400 206.000 C 117.002 206.440,116.371 206.800,115.998 206.800 C 115.124 206.800,111.200 211.071,111.200 212.022 C 111.200 212.424,110.800 212.869,110.300 213.023 C 108.997 213.423,107.224 215.264,107.211 216.230 C 107.205 216.687,106.750 217.483,106.200 218.000 C 105.591 218.572,105.200 219.381,105.200 220.070 C 105.200 220.691,105.033 221.200,104.829 221.200 C 104.043 221.200,103.200 222.512,103.200 223.734 C 103.200 224.674,102.963 225.114,102.300 225.405 L 101.400 225.800 101.400 289.000 L 101.400 352.200 102.300 352.595 C 103.052 352.925,103.200 353.303,103.200 354.895 C 103.200 356.660,103.273 356.800,104.200 356.800 C 105.128 356.800,105.676 359.783,105.247 362.500 C 105.221 362.665,105.335 362.779,105.500 362.753 C 106.682 362.566,107.200 362.885,107.200 363.800 C 107.200 364.600,107.400 364.800,108.200 364.800 C 109.133 364.800,109.200 364.933,109.200 366.800 C 109.200 368.651,109.272 368.800,110.172 368.800 C 110.876 368.800,111.180 369.049,111.272 369.700 C 111.354 370.278,111.722 370.646,112.300 370.728 C 112.951 370.820,113.200 371.124,113.200 371.828 C 113.200 372.598,113.408 372.800,114.200 372.800 C 114.750 372.800,115.200 372.967,115.200 373.171 C 115.200 374.013,116.546 374.800,117.985 374.800 C 119.282 374.800,119.551 374.952,119.764 375.800 C 119.923 376.431,120.298 376.800,120.781 376.800 C 121.202 376.800,121.654 377.141,121.786 377.557 C 122.077 378.473,123.122 378.787,125.900 378.795 C 127.055 378.798,128.000 378.967,128.000 379.171 C 128.000 380.185,129.351 380.800,131.580 380.800 C 133.545 380.800,133.994 380.939,134.500 381.700 L 135.097 382.600 195.249 382.707 C 255.403 382.813,260.139 382.722,261.570 381.427 C 261.951 381.082,262.936 380.800,263.758 380.800 C 265.366 380.800,266.806 380.211,267.319 379.343 C 267.494 379.046,268.366 378.687,269.257 378.545 C 270.147 378.402,271.173 377.974,271.538 377.594 C 271.902 377.213,272.780 376.607,273.488 376.247 C 276.250 374.842,284.400 365.317,284.400 363.494 C 284.400 363.305,284.885 362.127,285.478 360.875 C 286.401 358.928,286.604 357.822,286.886 353.200 C 287.067 350.230,287.436 347.260,287.706 346.600 C 288.054 345.749,288.282 339.938,288.490 326.600 C 288.651 316.260,288.863 306.246,288.961 304.346 C 289.097 301.716,288.999 300.691,288.547 300.046 L 287.955 299.200 242.627 299.200 L 197.300 299.200 197.050 297.950 C 196.470 295.051,196.855 290.939,197.659 291.436 C 198.031 291.666,262.651 291.646,310.061 291.401 C 323.624 291.331,337.124 291.073,340.061 290.828 C 342.997 290.583,346.175 290.318,347.122 290.238 C 348.117 290.155,349.046 289.817,349.323 289.438 C 349.587 289.077,350.522 288.673,351.401 288.541 C 352.315 288.403,353.393 287.892,353.916 287.350 C 354.420 286.827,355.177 286.400,355.597 286.400 C 356.527 286.400,358.400 285.584,358.400 285.179 C 358.400 285.018,358.855 284.773,359.410 284.633 C 359.966 284.494,360.737 284.069,361.123 283.690 C 361.510 283.310,362.540 282.462,363.413 281.805 C 365.708 280.077,369.547 276.065,370.277 274.632 C 370.622 273.954,371.156 273.130,371.464 272.800 C 372.559 271.625,374.386 268.589,374.393 267.931 C 374.397 267.563,374.850 266.727,375.400 266.073 C 375.950 265.419,376.406 264.370,376.413 263.742 C 376.419 263.114,376.868 261.700,377.409 260.600 L 378.393 258.600 378.340 214.200 C 378.311 189.780,378.178 164.490,378.044 158.000 L 377.800 146.200 377.290 159.000 M293.423 165.110 C 293.300 165.233,293.212 165.798,293.227 166.367 C 293.254 167.385,293.260 167.387,293.680 166.519 C 293.914 166.035,294.396 165.577,294.753 165.503 C 295.235 165.402,295.176 165.306,294.523 165.127 C 294.041 164.995,293.546 164.987,293.423 165.110 M291.611 171.787 C 290.714 172.867,291.404 173.261,292.378 172.224 C 293.109 171.445,293.191 171.200,292.719 171.200 C 292.377 171.200,291.879 171.464,291.611 171.787 M253.800 323.599 C 253.939 324.039,254.474 324.504,254.989 324.633 C 255.503 324.762,256.333 325.302,256.832 325.834 C 257.331 326.365,258.068 326.800,258.470 326.800 C 258.982 326.800,259.200 327.098,259.200 327.800 C 259.200 328.600,259.400 328.800,260.200 328.800 C 261.133 328.800,261.200 328.933,261.200 330.800 C 261.200 332.667,261.267 332.800,262.200 332.800 L 263.200 332.800 263.200 340.000 L 263.200 347.200 262.200 347.200 C 261.400 347.200,261.200 347.400,261.200 348.200 C 261.200 349.000,261.000 349.200,260.200 349.200 C 259.400 349.200,259.200 349.400,259.200 350.200 C 259.200 351.000,259.000 351.200,258.200 351.200 C 257.408 351.200,257.200 351.402,257.200 352.172 C 257.200 352.876,256.951 353.180,256.300 353.272 C 255.722 353.354,255.354 353.722,255.272 354.300 C 255.159 355.094,254.900 355.205,253.072 355.246 C 249.902 355.317,249.827 355.338,249.405 356.300 C 248.961 357.312,244.735 357.665,244.162 356.738 C 243.968 356.425,244.057 356.385,244.438 356.615 C 244.916 356.903,244.918 356.852,244.455 356.281 C 244.155 355.911,243.750 355.707,243.555 355.828 C 243.360 355.949,243.200 355.864,243.200 355.640 C 243.200 355.410,241.858 355.183,240.100 355.117 C 237.231 355.009,236.990 354.933,236.872 354.100 C 236.790 353.522,236.468 353.200,235.972 353.200 C 235.415 353.200,235.200 352.921,235.200 352.200 C 235.200 351.650,235.028 351.200,234.817 351.200 C 234.606 351.200,233.969 350.406,233.400 349.436 C 232.832 348.466,232.121 347.579,231.821 347.463 C 231.521 347.348,231.153 346.696,231.003 346.013 C 230.853 345.331,230.296 344.488,229.765 344.140 C 228.437 343.270,228.304 337.139,229.578 335.519 C 230.006 334.975,230.567 333.691,230.825 332.665 C 231.084 331.639,231.441 330.800,231.621 330.800 C 231.800 330.800,232.072 330.403,232.226 329.918 C 232.469 329.152,233.112 328.463,236.400 325.446 C 236.730 325.143,237.577 324.771,238.282 324.620 C 239.037 324.458,239.664 324.027,239.809 323.572 C 240.195 322.356,253.413 322.381,253.800 323.599 " stroke="none" fill="#dec633" fill-rule="evenodd"></path><path id="path2" d="M158.148 12.021 C 157.517 12.149,151.600 12.216,145.000 12.170 C 137.736 12.120,133.316 12.227,133.800 12.442 C 134.373 12.697,134.217 12.729,133.250 12.556 C 132.482 12.419,131.790 12.493,131.645 12.728 C 131.504 12.955,129.412 13.242,126.995 13.365 C 124.578 13.488,122.375 13.621,122.100 13.661 C 121.466 13.753,121.440 14.400,122.070 14.400 C 122.328 14.400,122.193 14.734,121.770 15.142 C 121.346 15.550,120.903 15.736,120.785 15.555 C 120.666 15.375,120.098 15.472,119.522 15.771 C 118.778 16.156,118.350 16.190,118.046 15.886 C 117.743 15.583,117.667 15.709,117.785 16.321 C 117.876 16.796,117.827 17.166,117.675 17.144 C 116.756 17.014,116.014 17.267,116.100 17.681 C 116.155 17.946,115.930 18.171,115.600 18.181 C 113.969 18.232,113.364 19.081,114.376 19.900 C 115.346 20.685,115.209 21.843,114.193 21.453 C 113.627 21.235,113.056 22.243,113.415 22.824 C 113.535 23.018,113.175 23.291,112.616 23.432 C 111.984 23.590,111.600 23.968,111.600 24.429 C 111.600 24.838,111.235 25.367,110.789 25.606 C 110.343 25.845,110.074 26.197,110.193 26.388 C 110.311 26.579,109.821 27.196,109.104 27.759 C 108.021 28.608,107.875 28.902,108.241 29.491 C 108.822 30.425,110.334 30.637,110.645 29.828 C 111.311 28.092,113.200 29.106,113.200 31.200 C 113.200 33.004,113.288 33.201,114.100 33.213 C 115.496 33.232,117.200 34.958,117.200 36.352 C 117.200 38.376,118.720 39.200,122.454 39.200 L 125.600 39.200 125.600 40.400 C 125.600 41.343,125.775 41.600,126.421 41.600 C 126.973 41.600,127.378 41.208,127.660 40.400 C 127.914 39.671,128.359 39.200,128.792 39.200 C 129.185 39.200,129.591 38.885,129.694 38.500 C 130.139 36.842,138.030 34.952,141.099 35.769 C 142.311 36.091,143.293 36.173,143.423 35.964 C 143.856 35.262,148.354 35.560,150.000 36.400 C 150.862 36.840,151.921 37.200,152.352 37.200 C 153.182 37.200,158.400 42.212,158.400 43.010 C 158.400 43.266,158.764 43.805,159.208 44.208 C 160.695 45.553,162.400 48.518,162.406 49.769 C 162.417 51.939,163.042 52.383,164.150 51.008 C 165.379 49.484,167.200 50.116,167.200 52.068 C 167.200 53.009,167.369 53.200,168.200 53.200 C 168.988 53.200,169.200 53.403,169.200 54.156 C 169.200 54.923,169.458 55.156,170.500 55.334 C 176.560 56.367,182.110 58.122,183.277 59.375 C 183.700 59.829,184.440 60.224,184.923 60.254 C 185.405 60.284,186.340 60.494,187.000 60.721 C 190.703 61.992,191.246 62.078,192.440 61.583 C 193.275 61.238,194.470 61.190,196.511 61.421 C 199.975 61.813,249.259 61.815,252.400 61.423 C 253.610 61.272,255.187 60.881,255.904 60.553 C 256.622 60.226,257.366 60.056,257.559 60.175 C 257.752 60.294,258.132 60.123,258.404 59.796 C 258.676 59.468,259.416 59.200,260.049 59.200 C 261.010 59.200,261.200 59.035,261.200 58.200 C 261.200 57.434,261.410 57.197,262.100 57.186 C 262.595 57.178,263.450 56.914,264.000 56.600 C 264.550 56.286,265.467 56.022,266.038 56.014 C 267.065 56.000,268.400 54.928,268.400 54.117 C 268.400 53.887,268.673 53.471,269.007 53.195 C 269.340 52.918,269.565 52.245,269.507 51.700 C 269.396 50.667,269.696 50.401,271.900 49.585 C 272.927 49.204,273.200 48.876,273.200 48.021 C 273.200 47.385,273.611 46.553,274.200 46.000 C 274.996 45.252,275.200 44.671,275.200 43.149 C 275.200 40.992,275.864 39.200,276.664 39.200 C 277.380 39.200,277.350 37.451,276.611 36.020 C 276.091 35.016,276.091 34.822,276.611 34.391 C 277.022 34.049,277.200 34.037,277.200 34.351 C 277.200 34.598,277.374 34.800,277.587 34.800 C 277.801 34.800,277.857 34.485,277.713 34.100 C 277.474 33.464,277.521 33.455,278.225 34.000 C 278.935 34.550,278.956 34.544,278.474 33.928 C 278.185 33.558,277.932 32.700,277.913 32.020 C 277.892 31.295,277.465 30.340,276.878 29.707 C 276.329 29.114,275.554 27.902,275.157 27.014 C 274.759 26.126,274.005 24.944,273.481 24.386 C 272.957 23.829,272.570 23.086,272.621 22.735 C 272.682 22.321,272.484 22.155,272.057 22.262 C 271.640 22.367,271.150 21.982,270.716 21.208 C 270.339 20.538,269.889 20.013,269.716 20.042 C 268.893 20.179,268.492 19.919,268.059 18.970 C 267.801 18.404,267.674 17.804,267.777 17.637 C 268.039 17.213,266.698 17.232,266.153 17.659 C 265.880 17.873,265.522 17.788,265.234 17.441 C 264.878 17.011,264.875 16.801,265.223 16.586 C 265.561 16.377,265.539 16.209,265.143 15.965 C 264.783 15.742,264.508 15.860,264.328 16.315 C 264.074 16.954,264.054 16.953,264.028 16.300 C 264.001 15.637,263.833 15.547,262.400 15.429 C 262.070 15.402,261.825 15.071,261.855 14.694 C 261.885 14.313,261.725 14.123,261.494 14.265 C 261.266 14.407,260.836 14.190,260.539 13.785 C 260.234 13.368,260.000 13.265,260.000 13.547 C 260.000 13.847,259.800 13.922,259.500 13.735 C 258.951 13.393,258.228 13.312,254.488 13.175 C 253.106 13.125,251.863 12.902,251.726 12.680 C 251.570 12.427,251.687 12.403,252.038 12.615 C 252.500 12.894,252.497 12.827,252.021 12.241 C 251.522 11.627,251.383 11.609,251.016 12.111 C 250.643 12.621,250.522 12.620,250.043 12.108 C 249.615 11.650,249.428 11.631,249.186 12.022 C 248.965 12.380,248.154 12.456,246.338 12.287 C 242.963 11.974,159.620 11.723,158.148 12.021 M366.806 118.737 C 366.803 119.033,367.150 119.366,367.578 119.478 C 368.005 119.590,368.410 120.068,368.478 120.541 C 368.567 121.168,368.899 121.413,369.705 121.449 C 370.717 121.493,370.725 121.483,369.805 121.322 C 369.132 121.205,368.800 120.887,368.800 120.361 C 368.800 119.929,368.485 119.459,368.100 119.317 C 367.715 119.175,367.268 118.865,367.106 118.629 C 366.914 118.348,366.810 118.385,366.806 118.737 M374.847 130.212 C 374.809 131.197,375.013 131.505,375.933 131.852 C 376.829 132.191,377.067 132.167,377.067 131.740 C 377.067 131.247,376.450 131.048,375.704 131.300 C 375.541 131.355,375.292 130.860,375.151 130.200 L 374.895 129.000 374.847 130.212 M376.241 134.236 C 375.934 135.038,377.092 137.545,377.727 137.452 C 378.620 137.321,378.600 136.600,377.700 136.472 C 376.838 136.350,376.622 135.842,376.779 134.300 C 376.868 133.426,376.566 133.391,376.241 134.236 M378.408 139.791 C 377.931 140.365,377.747 166.680,378.216 167.149 C 378.317 167.250,378.404 161.678,378.410 154.767 C 378.415 147.855,378.576 141.525,378.767 140.700 C 379.155 139.033,379.117 138.936,378.408 139.791 " stroke="none" fill="#8694b8" fill-rule="evenodd"></path><path id="path3" d="M297.089 105.445 C 296.960 105.573,296.952 105.931,297.070 106.239 C 297.260 106.734,297.003 106.881,296.145 106.766 C 295.333 106.657,295.206 109.925,295.209 130.800 C 295.211 143.450,295.210 156.455,295.206 159.700 C 295.201 164.360,295.087 165.600,294.664 165.600 C 293.871 165.600,293.200 167.385,293.200 169.493 C 293.200 170.867,292.966 171.597,292.300 172.306 C 291.805 172.833,291.374 173.745,291.343 174.332 C 291.311 174.919,291.266 175.792,291.243 176.272 C 291.214 176.855,290.902 177.187,290.300 177.272 C 289.693 177.358,289.355 177.722,289.260 178.389 C 289.184 178.933,288.689 179.892,288.160 180.520 C 287.201 181.660,287.049 182.072,287.169 183.200 C 287.208 183.559,287.106 183.640,286.917 183.400 C 286.272 182.586,285.552 182.734,286.076 183.573 C 286.342 183.999,286.685 184.271,286.838 184.176 C 286.991 184.082,287.223 184.283,287.354 184.623 C 287.484 184.964,287.420 185.136,287.210 185.006 C 287.001 184.877,286.484 185.116,286.061 185.539 C 284.581 187.019,285.985 189.200,288.419 189.200 C 288.985 189.200,289.200 189.475,289.200 190.200 C 289.200 191.055,289.383 191.200,290.462 191.200 C 291.671 191.200,291.695 191.232,291.045 191.951 C 290.296 192.778,290.761 193.200,292.419 193.200 C 293.671 193.200,296.078 194.503,295.502 194.869 C 295.172 195.078,295.332 195.190,295.967 195.194 C 296.498 195.197,296.814 195.319,296.668 195.465 C 296.077 196.056,299.752 197.200,302.244 197.200 C 304.704 197.200,304.800 197.238,304.800 198.200 C 304.800 199.179,304.864 199.200,307.842 199.200 C 310.504 199.200,311.033 199.325,312.073 200.200 L 313.261 201.200 330.161 201.200 L 347.061 201.200 348.000 200.200 C 348.774 199.376,349.315 199.200,351.070 199.200 C 353.075 199.200,353.200 199.141,353.200 198.200 C 353.200 197.282,353.347 197.200,354.991 197.200 C 356.983 197.200,361.200 195.378,361.200 194.517 C 361.200 194.233,361.563 194.000,362.006 194.000 C 363.578 194.000,365.883 193.032,366.239 192.222 C 366.451 191.739,367.057 191.347,367.707 191.273 C 369.067 191.116,371.575 188.626,371.873 187.135 C 372.275 185.124,373.378 185.320,374.475 187.600 C 374.969 188.626,375.156 188.786,375.177 188.200 C 375.192 187.760,375.553 183.890,375.979 179.600 C 376.673 172.611,377.220 162.317,377.775 145.839 C 377.878 142.761,378.149 140.091,378.381 139.859 C 379.159 139.081,378.897 137.227,378.032 137.394 C 376.780 137.635,375.732 135.069,376.564 133.799 C 377.250 132.752,376.623 131.600,375.368 131.600 C 374.947 131.600,374.811 131.137,374.859 129.863 C 374.932 127.930,374.636 127.200,373.776 127.200 C 373.432 127.200,373.200 126.807,373.200 126.226 C 373.200 124.742,372.492 123.200,371.810 123.200 C 371.256 123.200,371.167 123.034,371.216 122.100 C 371.224 121.935,370.639 121.710,369.916 121.600 C 368.932 121.450,368.568 121.173,368.472 120.500 C 368.402 120.005,368.082 119.600,367.762 119.600 C 367.442 119.600,367.015 119.165,366.813 118.634 C 366.611 118.103,366.087 117.555,365.648 117.415 C 365.210 117.276,364.794 116.766,364.725 116.281 C 364.646 115.721,364.272 115.353,363.700 115.272 C 363.049 115.180,362.800 114.876,362.800 114.172 C 362.800 113.271,362.653 113.200,360.775 113.200 C 358.904 113.200,358.759 113.131,358.875 112.300 C 358.975 111.578,358.783 111.375,357.900 111.273 C 357.036 111.174,356.800 110.938,356.800 110.173 C 356.800 109.274,356.650 109.200,354.828 109.200 C 353.087 109.200,352.841 109.094,352.728 108.300 C 352.609 107.465,352.371 107.392,349.419 107.282 C 347.669 107.217,345.970 106.947,345.642 106.682 C 345.162 106.293,345.111 106.307,345.379 106.752 C 345.609 107.134,345.540 107.247,345.156 107.119 C 344.850 107.017,344.578 106.723,344.550 106.467 C 344.523 106.210,344.478 105.829,344.450 105.620 C 344.396 105.209,297.498 105.035,297.089 105.445 " stroke="none" fill="#e3d595" fill-rule="evenodd"></path><path id="path4" d="M129.823 11.834 C 128.886 12.771,129.067 13.200,130.400 13.200 C 131.060 13.200,131.600 13.000,131.600 12.755 C 131.600 12.467,132.125 12.393,133.100 12.546 C 134.116 12.705,134.342 12.670,133.800 12.436 C 132.895 12.046,138.679 12.011,200.582 12.031 C 224.333 12.039,244.915 12.153,246.321 12.284 C 248.131 12.453,248.965 12.380,249.180 12.032 C 249.412 11.657,249.630 11.687,250.103 12.160 C 250.662 12.719,250.746 12.717,250.971 12.132 C 251.225 11.469,251.800 11.724,251.800 12.500 C 251.800 12.738,252.025 13.008,252.300 13.100 C 253.114 13.371,252.869 12.065,252.022 11.612 C 250.592 10.847,130.593 11.065,129.823 11.834 M119.743 13.914 C 119.444 14.213,119.200 14.624,119.200 14.829 C 119.200 15.033,118.744 15.200,118.187 15.200 C 117.631 15.200,117.069 15.477,116.939 15.815 C 116.809 16.153,116.230 16.684,115.652 16.996 C 114.207 17.774,111.114 20.737,111.349 21.117 C 111.454 21.287,111.059 21.421,110.470 21.413 C 109.554 21.402,109.410 21.555,109.472 22.477 C 109.525 23.267,109.391 23.495,108.967 23.332 C 107.995 22.959,107.200 24.001,107.200 25.649 C 107.200 27.037,107.095 27.200,106.200 27.200 C 105.404 27.200,105.200 27.401,105.200 28.186 C 105.200 28.755,104.869 29.349,104.417 29.591 C 103.692 29.979,103.250 31.286,103.093 33.510 C 103.052 34.090,102.835 34.345,102.493 34.214 C 102.199 34.102,102.056 34.167,102.175 34.359 C 102.294 34.552,102.123 34.932,101.796 35.204 C 101.357 35.567,101.192 36.611,101.168 39.149 C 101.151 41.047,101.047 42.377,100.936 42.104 C 100.449 40.899,99.683 42.726,99.708 45.030 C 99.723 46.334,99.676 47.670,99.604 48.000 C 99.533 48.330,99.526 50.850,99.590 53.600 C 99.668 56.997,99.800 58.151,100.000 57.200 C 100.163 56.426,100.353 60.720,100.426 66.800 C 100.523 74.946,100.620 76.710,100.800 73.600 L 101.043 69.400 101.212 74.000 C 101.304 76.530,101.333 79.621,101.277 80.868 C 101.220 82.116,101.360 83.251,101.587 83.392 C 101.814 83.532,102.000 84.267,102.000 85.024 C 102.000 85.931,102.189 86.400,102.555 86.400 C 103.177 86.400,103.692 88.502,103.417 89.918 C 103.029 91.920,102.416 91.854,122.116 91.926 C 152.766 92.039,190.917 92.423,192.285 92.633 C 193.960 92.891,194.236 94.256,193.488 98.600 C 192.938 101.801,193.186 104.838,194.022 105.133 C 194.230 105.207,194.400 105.618,194.400 106.047 C 194.400 106.695,194.532 106.758,195.174 106.414 C 196.284 105.820,197.200 105.904,197.200 106.600 C 197.200 107.080,197.800 107.200,200.200 107.200 C 203.116 107.200,203.200 107.228,203.200 108.178 L 203.200 109.157 208.700 109.392 C 211.725 109.521,223.110 109.762,234.000 109.927 C 244.890 110.092,254.167 110.367,254.616 110.538 C 255.205 110.763,255.639 110.620,256.178 110.025 C 256.588 109.571,257.405 109.200,257.992 109.200 C 258.615 109.200,259.453 108.783,260.000 108.200 C 260.774 107.376,261.315 107.200,263.070 107.200 C 265.075 107.200,265.200 107.141,265.200 106.200 C 265.200 105.466,265.413 105.200,266.002 105.200 C 266.443 105.200,267.737 104.750,268.877 104.200 C 270.017 103.650,271.420 103.200,271.994 103.200 C 272.738 103.200,273.667 102.552,275.219 100.951 C 276.419 99.714,278.292 97.869,279.383 96.851 C 280.473 95.833,281.754 94.627,282.230 94.171 L 283.094 93.342 284.045 95.082 C 284.857 96.569,285.062 96.730,285.457 96.190 C 285.813 95.703,285.963 95.678,286.108 96.079 C 286.743 97.829,286.984 90.662,286.992 69.800 C 287.001 42.961,286.955 41.603,286.038 41.594 C 285.480 41.589,285.475 41.539,286.000 41.200 C 286.511 40.870,286.494 40.811,285.887 40.806 C 284.980 40.798,284.422 39.319,284.812 37.957 C 285.166 36.725,284.950 36.328,283.615 35.755 C 282.739 35.379,282.644 35.124,282.747 33.437 C 282.848 31.802,282.750 31.512,282.032 31.324 C 281.483 31.181,281.200 30.783,281.200 30.153 C 281.200 29.476,280.975 29.200,280.424 29.200 C 279.997 29.200,279.519 28.992,279.362 28.738 C 279.185 28.452,279.252 28.385,279.538 28.562 C 279.792 28.719,280.000 28.672,280.000 28.457 C 280.000 28.242,279.810 28.003,279.578 27.926 C 279.191 27.797,278.907 26.953,278.831 25.700 C 278.814 25.425,278.460 25.200,278.043 25.200 C 277.570 25.200,277.193 24.826,277.036 24.200 C 276.875 23.558,276.503 23.200,276.000 23.200 C 275.497 23.200,275.125 22.842,274.964 22.200 C 274.784 21.482,274.443 21.200,273.757 21.200 C 273.049 21.200,272.800 20.980,272.800 20.353 C 272.800 19.703,272.614 19.555,271.999 19.716 C 271.559 19.831,271.300 19.762,271.423 19.563 C 271.546 19.363,271.457 19.177,271.224 19.150 C 270.991 19.122,270.620 19.055,270.400 19.000 C 270.180 18.945,269.820 18.878,269.600 18.850 C 269.380 18.823,269.200 18.434,269.200 17.986 C 269.200 17.144,267.625 17.003,266.915 17.782 C 266.742 17.973,266.804 18.012,267.054 17.869 C 267.318 17.718,267.713 18.108,268.002 18.805 C 268.455 19.899,268.853 20.186,269.716 20.042 C 269.889 20.013,270.339 20.538,270.716 21.208 C 271.150 21.982,271.640 22.367,272.057 22.262 C 272.484 22.155,272.682 22.321,272.621 22.735 C 272.570 23.086,272.957 23.829,273.481 24.386 C 274.005 24.944,274.759 26.126,275.157 27.014 C 275.554 27.902,276.329 29.114,276.878 29.707 C 277.465 30.340,277.892 31.295,277.913 32.020 C 277.932 32.700,278.185 33.558,278.474 33.928 C 278.956 34.544,278.935 34.550,278.225 34.000 C 277.521 33.455,277.474 33.464,277.713 34.100 C 277.857 34.485,277.801 34.800,277.587 34.800 C 277.374 34.800,277.200 34.598,277.200 34.351 C 277.200 34.037,277.022 34.049,276.611 34.391 C 276.091 34.822,276.091 35.016,276.611 36.020 C 277.350 37.451,277.380 39.200,276.664 39.200 C 275.864 39.200,275.200 40.992,275.200 43.149 C 275.200 44.671,274.996 45.252,274.200 46.000 C 273.611 46.553,273.200 47.385,273.200 48.021 C 273.200 48.876,272.927 49.204,271.900 49.585 C 269.696 50.401,269.396 50.667,269.507 51.700 C 269.565 52.245,269.340 52.918,269.007 53.195 C 268.673 53.471,268.400 53.918,268.400 54.187 C 268.400 54.966,267.025 55.999,265.969 56.014 C 265.436 56.022,264.550 56.286,264.000 56.600 C 263.450 56.914,262.595 57.178,262.100 57.186 C 261.410 57.197,261.200 57.434,261.200 58.200 C 261.200 59.035,261.010 59.200,260.049 59.200 C 259.416 59.200,258.676 59.468,258.404 59.796 C 258.132 60.123,257.752 60.294,257.559 60.175 C 257.366 60.056,256.622 60.226,255.904 60.553 C 255.187 60.881,253.610 61.272,252.400 61.423 C 249.259 61.815,199.975 61.813,196.511 61.421 C 194.470 61.190,193.275 61.238,192.440 61.583 C 191.246 62.078,190.703 61.992,187.000 60.721 C 186.340 60.494,185.405 60.284,184.923 60.254 C 184.440 60.224,183.700 59.829,183.277 59.375 C 182.110 58.122,176.560 56.367,170.500 55.334 C 169.458 55.156,169.200 54.923,169.200 54.156 C 169.200 53.403,168.988 53.200,168.200 53.200 C 167.369 53.200,167.200 53.009,167.200 52.068 C 167.200 50.116,165.379 49.484,164.150 51.008 C 163.042 52.383,162.417 51.939,162.406 49.769 C 162.400 48.518,160.695 45.553,159.208 44.208 C 158.764 43.805,158.400 43.266,158.400 43.010 C 158.400 42.212,153.182 37.200,152.352 37.200 C 151.921 37.200,150.862 36.840,150.000 36.400 C 148.354 35.560,143.856 35.262,143.423 35.964 C 143.293 36.173,142.311 36.091,141.099 35.769 C 138.030 34.952,130.139 36.842,129.694 38.500 C 129.591 38.885,129.185 39.200,128.792 39.200 C 128.359 39.200,127.914 39.671,127.660 40.400 C 127.071 42.091,125.600 42.091,125.600 40.400 L 125.600 39.200 122.454 39.200 C 118.720 39.200,117.200 38.376,117.200 36.352 C 117.200 34.958,115.496 33.232,114.100 33.213 C 113.288 33.201,113.200 33.004,113.200 31.200 C 113.200 29.106,111.311 28.092,110.645 29.828 C 110.334 30.637,108.822 30.425,108.241 29.491 C 107.875 28.902,108.021 28.608,109.104 27.759 C 109.821 27.196,110.311 26.579,110.193 26.388 C 110.074 26.197,110.343 25.845,110.789 25.606 C 111.235 25.367,111.600 24.838,111.600 24.429 C 111.600 23.968,111.984 23.590,112.616 23.432 C 113.175 23.291,113.535 23.018,113.415 22.824 C 113.056 22.243,113.627 21.235,114.193 21.453 C 115.158 21.823,115.363 20.699,114.464 19.971 C 113.430 19.134,113.402 18.962,114.245 18.638 C 114.706 18.461,114.823 18.563,114.657 18.995 C 114.529 19.328,114.620 19.600,114.859 19.600 C 115.098 19.600,115.198 19.236,115.082 18.790 C 114.926 18.194,115.045 18.010,115.535 18.090 C 115.901 18.151,116.155 17.975,116.100 17.700 C 116.014 17.270,116.745 17.012,117.675 17.144 C 117.827 17.166,117.876 16.796,117.785 16.321 C 117.667 15.709,117.743 15.583,118.046 15.886 C 118.350 16.190,118.778 16.156,119.522 15.771 C 120.098 15.472,120.666 15.375,120.785 15.555 C 120.903 15.736,121.346 15.550,121.770 15.142 C 122.193 14.734,122.328 14.400,122.070 14.400 C 121.811 14.400,121.600 14.209,121.600 13.976 C 121.600 13.743,121.744 13.642,121.919 13.750 C 122.095 13.858,122.500 13.777,122.819 13.569 C 123.229 13.301,122.941 13.217,121.843 13.281 C 120.987 13.330,120.042 13.616,119.743 13.914 M260.510 13.700 C 260.607 13.975,260.967 14.177,261.311 14.150 C 261.665 14.121,261.852 14.321,261.741 14.609 C 261.498 15.243,262.251 15.765,262.598 15.203 C 263.108 14.378,262.368 13.200,261.340 13.200 C 260.707 13.200,260.399 13.386,260.510 13.700 M263.440 15.506 C 263.682 15.668,263.983 16.070,264.108 16.400 C 264.293 16.884,264.343 16.867,264.368 16.313 C 264.389 15.858,264.612 15.707,265.027 15.866 C 265.462 16.033,265.526 16.234,265.236 16.524 C 264.582 17.178,265.539 18.149,266.253 17.556 C 267.095 16.857,266.905 15.721,265.900 15.452 C 264.636 15.113,262.909 15.151,263.440 15.506 M148.277 37.589 C 148.590 38.035,149.240 38.403,149.723 38.407 C 150.205 38.411,151.392 38.951,152.360 39.607 C 153.328 40.263,154.273 40.800,154.460 40.800 C 154.647 40.800,154.803 41.205,154.806 41.700 C 154.814 42.872,155.274 43.564,156.428 44.139 C 157.255 44.551,157.350 44.848,157.252 46.695 C 157.156 48.502,157.280 48.913,158.171 49.738 C 159.731 51.184,159.752 58.451,158.200 59.671 C 157.437 60.272,157.200 60.830,157.200 62.029 C 157.200 63.147,157.030 63.600,156.610 63.600 C 156.286 63.600,155.741 64.140,155.400 64.800 C 155.059 65.460,154.604 66.000,154.390 66.000 C 154.175 66.000,154.000 66.270,154.000 66.600 C 154.000 67.098,153.075 67.451,152.690 67.100 C 152.477 66.906,151.277 68.205,151.338 68.565 C 151.372 68.765,150.950 69.042,150.400 69.181 C 149.776 69.338,149.352 69.765,149.272 70.316 C 149.146 71.190,149.065 71.200,141.972 71.200 C 134.876 71.200,134.571 71.146,134.745 69.924 C 134.766 69.773,134.382 69.523,133.892 69.370 C 133.401 69.217,132.581 68.677,132.069 68.170 C 131.557 67.662,130.657 67.192,130.069 67.124 C 129.238 67.028,128.972 66.755,128.873 65.900 C 128.785 65.132,128.518 64.800,127.989 64.800 C 126.176 64.800,125.110 62.057,126.554 61.106 C 126.817 60.933,126.651 60.810,126.149 60.806 C 124.660 60.795,124.356 59.881,124.227 55.016 L 124.104 50.374 125.853 46.917 C 128.202 42.276,130.915 39.612,134.494 38.434 C 135.316 38.163,136.100 37.762,136.235 37.543 C 137.085 36.168,147.309 36.207,148.277 37.589 M100.287 53.100 C 100.195 53.705,100.120 53.210,100.120 52.000 C 100.120 50.790,100.195 50.295,100.287 50.900 C 100.378 51.505,100.378 52.495,100.287 53.100 M99.701 61.000 C 99.705 61.880,99.787 62.193,99.883 61.695 C 99.979 61.198,99.975 60.478,99.875 60.095 C 99.775 59.713,99.696 60.120,99.701 61.000 M101.089 67.300 C 101.001 68.015,100.928 67.430,100.928 66.000 C 100.928 64.570,101.001 63.985,101.089 64.700 C 101.178 65.415,101.178 66.585,101.089 67.300 M100.509 82.000 C 100.509 82.990,100.587 83.395,100.682 82.900 C 100.778 82.405,100.778 81.595,100.682 81.100 C 100.587 80.605,100.509 81.010,100.509 82.000 M188.600 106.380 C 189.199 106.633,188.848 106.754,187.200 106.863 L 185.000 107.009 187.693 107.350 C 190.215 107.670,194.057 107.335,192.855 106.900 C 192.520 106.779,192.467 106.606,192.716 106.452 C 192.940 106.313,191.926 106.165,190.462 106.121 C 188.713 106.069,188.074 106.158,188.600 106.380 M359.200 112.600 C 359.200 112.930,359.492 113.200,359.849 113.200 C 360.380 113.200,360.408 113.091,360.000 112.600 C 359.726 112.270,359.434 112.000,359.351 112.000 C 359.268 112.000,359.200 112.270,359.200 112.600 M375.200 130.152 C 375.200 130.743,375.461 131.049,376.000 131.090 C 376.529 131.130,376.800 130.904,376.800 130.422 C 376.800 130.021,376.440 129.599,376.000 129.484 C 375.380 129.322,375.200 129.472,375.200 130.152 M376.800 136.037 C 376.800 136.237,377.151 136.400,377.580 136.400 C 378.009 136.400,378.544 136.715,378.768 137.100 C 378.992 137.485,379.178 137.620,379.182 137.400 C 379.185 137.180,379.056 136.804,378.894 136.565 C 378.511 135.998,376.800 135.567,376.800 136.037 M378.593 183.800 C 378.593 207.120,378.641 216.719,378.700 205.131 C 378.759 193.542,378.759 174.462,378.700 162.731 C 378.641 150.999,378.593 160.480,378.593 183.800 M56.890 247.270 C 56.395 247.765,53.826 248.267,49.800 248.655 C 47.097 248.916,45.200 250.244,45.200 251.875 C 45.200 252.718,45.024 252.800,43.200 252.800 C 41.278 252.800,41.200 252.844,41.200 253.915 C 41.200 254.724,40.651 255.571,39.200 257.000 C 37.813 258.366,37.200 259.290,37.200 260.015 C 37.200 260.613,36.772 261.463,36.200 262.000 C 35.591 262.572,35.200 263.381,35.200 264.070 C 35.200 264.691,35.049 265.200,34.864 265.200 C 34.051 265.200,33.489 267.727,33.333 272.088 C 33.226 275.071,32.957 277.178,32.592 277.880 C 32.054 278.917,32.080 279.020,33.010 279.584 C 33.554 279.915,34.000 280.423,34.000 280.713 C 34.000 281.003,34.585 281.503,35.300 281.824 C 36.015 282.145,37.050 282.755,37.600 283.180 C 38.150 283.605,39.140 284.001,39.800 284.060 C 40.460 284.119,41.374 284.491,41.830 284.888 C 43.584 286.410,88.237 286.844,89.571 285.351 C 89.744 285.158,89.686 281.469,89.443 277.152 C 89.023 269.713,88.965 269.349,88.333 270.152 C 87.440 271.287,86.408 270.671,85.600 268.520 C 85.270 267.642,84.406 266.250,83.681 265.426 C 82.733 264.350,82.476 263.790,82.769 263.437 C 83.065 263.080,82.634 262.413,81.188 260.988 C 79.786 259.607,79.200 258.714,79.200 257.958 C 79.200 257.149,78.955 256.825,78.200 256.636 C 77.554 256.474,77.200 256.104,77.200 255.592 C 77.200 254.988,76.930 254.800,76.062 254.800 C 75.404 254.800,74.602 254.439,74.162 253.946 C 73.263 252.938,64.953 248.800,63.828 248.800 C 63.401 248.800,62.637 248.410,62.130 247.934 C 61.328 247.181,61.070 247.131,60.152 247.549 C 59.283 247.945,58.976 247.921,58.417 247.415 C 57.600 246.676,57.494 246.666,56.890 247.270 " stroke="none" fill="#7080ad" fill-rule="evenodd"></path></g></svg>