<?xml version="1.0" encoding="UTF-8" standalone="no"?>
<!DOCTYPE svg PUBLIC "-//W3C//DTD SVG 20010904//EN"
"http://www.w3.org/TR/2001/REC-SVG-20010904/DTD/svg10.dtd">
<!-- Created with Sodipodi ("http://www.sodipodi.com/") -->
<svg
   id="svg548"
   sodipodi:version="0.32"
   width="400pt"
   height="400pt"
   sodipodi:docbase="/var/www/html/svg_gallery/svg/arrows"
   sodipodi:docname="arrow09_1.svg"
   inkscape:version="0.38.1"
   xmlns="http://www.w3.org/2000/svg"
   xmlns:inkscape="http://www.inkscape.org/namespaces/inkscape"
   xmlns:sodipodi="http://sodipodi.sourceforge.net/DTD/sodipodi-0.dtd"
   xmlns:xlink="http://www.w3.org/1999/xlink">
  <defs
     id="defs550">
    <linearGradient
       id="linearGradient834">
      <stop
         style="stop-color:#ffffff;stop-opacity:0.40000001;"
         offset="0.0000000"
         id="stop835" />
      <stop
         style="stop-color:#ffffff;stop-opacity:0.10000000;"
         offset="1.0000000"
         id="stop836" />
    </linearGradient>
    <linearGradient
       xlink:href="#linearGradient834"
       id="linearGradient837" />
  </defs>
  <sodipodi:namedview
     id="base"
     showgrid="true"
     inkscape:zoom="0.90750000"
     inkscape:cx="200.00000"
     inkscape:cy="230.40398"
     inkscape:window-width="640"
     inkscape:window-height="500"
     inkscape:window-x="387"
     inkscape:window-y="61" />
  <g
     id="g843">
    <path
       style="fill-opacity:0.25000000;fill-rule:evenodd;stroke-width:3.7500000;fill:#000000;"
       d="M 344.12039,71.988369 C 343.33475,72.019559 342.67996,72.167609 342.12039,72.425869 C 324.21406,80.690339 351.74538,171.58212 351.74539,171.58212 C 351.74539,171.58212 72.142081,166.07007 59.745386,172.95712 C 47.348692,179.84417 47.286192,339.41382 59.682886,346.30087 C 72.079583,353.18791 351.71414,347.67587 351.71414,347.67587 C 351.71415,347.67586 324.15156,438.59890 342.05789,446.86337 C 359.57927,454.95015 491.75047,349.61110 493.55789,262.48837 L 493.62039,262.48837 C 493.70923,260.59312 493.62885,258.68384 493.58914,256.76962 C 491.83945,172.42929 367.93468,71.042939 344.12039,71.988369 z "
       id="path833"
       sodipodi:nodetypes="ccccccccccc" />
    <path
       style="fill:#0000ff;fill-rule:evenodd;stroke:#000000;stroke-width:10.000000;stroke-linejoin:round;"
       d="M 332.59375,67.067148 C 331.80811,67.098338 331.15332,67.246388 330.59375,67.504648 C 312.68742,75.769118 340.21874,166.66090 340.21875,166.66090 C 340.21875,166.66090 60.615445,161.14885 48.218750,168.03590 C 35.822056,174.92295 35.759556,334.49260 48.156250,341.37965 C 60.552947,348.26669 340.18750,342.75465 340.18750,342.75465 C 340.18751,342.75464 312.62492,433.67768 330.53125,441.94215 C 348.05263,450.02893 480.22383,344.68988 482.03125,257.56715 L 482.09375,257.56715 C 482.18259,255.67190 482.10221,253.76262 482.06250,251.84840 C 480.31281,167.50807 356.40804,66.121718 332.59375,67.067148 z "
       id="path831"
       sodipodi:nodetypes="ccccccccccc" />
    <path
       style="fill:url(#linearGradient837);fill-opacity:1;fill-rule:evenodd;stroke-width:1.0000000pt;"
       d="M 53.719008,176.30854 C 45.454545,194.21488 38.567493,294.76584 57.851239,333.33333 C 64.738292,334.71075 119.83471,257.57575 289.25620,265.84022 C 129.47658,245.17906 53.719008,176.30854 53.719008,176.30854 z "
       id="path832"
       sodipodi:nodetypes="cccc" />
  </g>

  <rdf:RDF 
   xmlns="http://web.resource.org/cc/"
   xmlns:dc="http://purl.org/dc/elements/1.1/"
   xmlns:rdf="http://www.w3.org/1999/02/22-rdf-syntax-ns#">
  <Work rdf:about="">
    <dc:title>Clipart by Nicu Buculei - arrow08_4</dc:title>
    <dc:rights>
       <Agent>
         <dc:title>Nicu Buculei</dc:title>
       </Agent>
    </dc:rights>
    <dc:type rdf:resource="http://purl.org/dc/dcmitype/StillImage" />
    <license rdf:resource="http://web.resource.org/cc/PublicDomain" />
  </Work>
   
  <License rdf:about="http://web.resource.org/cc/PublicDomain">
     <permits rdf:resource="http://web.resource.org/cc/Reproduction" />
     <permits rdf:resource="http://web.resource.org/cc/Distribution" />
     <permits rdf:resource="http://web.resource.org/cc/DerivativeWorks" />
  </License>

</rdf:RDF>
</svg>
