<?xml version="1.0" standalone="no"?>
<!DOCTYPE svg PUBLIC "-//W3C//DTD SVG 20010904//EN"
 "http://www.w3.org/TR/2001/REC-SVG-20010904/DTD/svg10.dtd">
<svg version="1.0" xmlns="http://www.w3.org/2000/svg"
 width="22.000000pt" height="22.000000pt" viewBox="0 0 22.000000 22.000000"
 preserveAspectRatio="xMidYMid meet">

<g transform="translate(0.000000,22.000000) scale(0.100000,-0.100000)"
fill="#000000" stroke="none">
<path d="M0 110 l0 -110 110 0 110 0 0 110 0 110 -110 0 -110 0 0 -110z m166
59 c14 -16 16 -23 6 -26 -9 -4 -10 -9 -2 -18 8 -9 6 -14 -5 -19 -8 -3 -15 -15
-15 -26 0 -11 -4 -20 -10 -20 -5 0 -10 9 -10 20 0 11 -4 20 -10 20 -5 0 -10
-9 -10 -20 0 -13 -7 -20 -20 -20 -13 0 -20 7 -20 19 0 11 -5 21 -12 23 -18 6
-20 50 -2 70 24 26 85 24 110 -3z"/>
</g>
</svg>
