<?xml version="1.0" standalone="no"?>
<!DOCTYPE svg PUBLIC "-//W3C//DTD SVG 20010904//EN"
 "http://www.w3.org/TR/2001/REC-SVG-20010904/DTD/svg10.dtd">
<svg version="1.0" xmlns="http://www.w3.org/2000/svg"
 width="22.000000pt" height="22.000000pt" viewBox="0 0 22.000000 22.000000"
 preserveAspectRatio="xMidYMid meet">

<g transform="translate(0.000000,22.000000) scale(0.100000,-0.100000)"
fill="#000000" stroke="none">
<path d="M0 110 l0 -110 110 0 110 0 0 110 0 110 -110 0 -110 0 0 -110z m165
60 c23 -25 11 -39 -18 -21 l-22 14 23 -25 c12 -13 22 -29 22 -34 0 -18 -58
-66 -70 -59 -8 5 -9 10 -1 18 19 19 12 27 -24 27 -51 0 -48 29 3 32 l37 1 -37
4 c-41 5 -47 16 -21 45 23 25 84 24 108 -2z"/>
</g>
</svg>
