<?xml version="1.0" standalone="no"?>
<!DOCTYPE svg PUBLIC "-//W3C//DTD SVG 20010904//EN"
 "http://www.w3.org/TR/2001/REC-SVG-20010904/DTD/svg10.dtd">
<svg version="1.0" xmlns="http://www.w3.org/2000/svg"
 width="22.000000pt" height="22.000000pt" viewBox="0 0 22.000000 22.000000"
 preserveAspectRatio="xMidYMid meet">

<g transform="translate(0.000000,22.000000) scale(0.100000,-0.100000)"
fill="#000000" stroke="none">
<path d="M0 110 l0 -110 110 0 110 0 0 110 0 110 -110 0 -110 0 0 -110z m166
59 c16 -17 16 -22 4 -29 -8 -6 -28 -10 -45 -11 -27 -2 -26 -2 8 -8 49 -8 52
-25 5 -29 -34 -3 -36 -5 -26 -22 23 -36 -3 -34 -39 3 l-37 37 29 30 c18 19 37
29 47 26 10 -2 16 0 12 5 -9 16 -27 10 -56 -18 -17 -16 -28 -21 -28 -13 0 48
90 69 126 29z"/>
</g>
</svg>
