<svg width="54.99993984008208" height="50.99997148786033" xmlns="http://www.w3.org/2000/svg">
 <!-- Created with Method Draw - http://github.com/duopixel/Method-Draw/ -->

 <g>
  <title>background</title>
  <rect height="53" width="57" y="-1" x="-1" fill="#fff" id="canvas_background"/>
  <g display="none" id="canvasGrid">
   <rect height="100%" width="100%" y="0" x="0" stroke-width="0" fill="url(#gridpattern)" id="svg_4"/>
  </g>
 </g>
 <g>
  <title>Layer 1</title>
  <ellipse ry="11.0847" rx="11.0658" cy="25.5" cx="27.5" stroke-width="1.5" stroke="#3401bf" fill="#3401bf" id="svg_1"/>
  <ellipse rx="0.5" cy="142.52" cx="30.02" stroke-width="1.5" stroke="#000" fill="#fff" id="svg_2"/>
  <path d="m14.43307,2.73685" stroke-width="1.5" stroke="#4609ed" fill="#4609ed" opacity="0.5" id="svg_3"/>
  <path d="m23.03587,26.86842" stroke-width="1.5" stroke="#4609ed" fill="#4609ed" opacity="0.5" id="svg_5"/>
  <path d="m33.375,25.484848l-1.522984,-1.470387l0,-3.511906l-1.305508,0l0,2.251326l-3.046507,-2.941381l-5.875,5.672348l1.398647,-0.032101l0,5.734753l8.890581,0l0,-5.702652l1.46077,0zm-5.874998,4.882458l-2.901194,0l0,-3.361561l2.901194,0l0,3.361561zm2.818628,-1.440666l-1.906397,0l0,-1.941065l1.906397,0l0,1.941065z" stroke-width="1.5" stroke-opacity="null" stroke="#ffffff" fill-opacity="null" fill="#ffffff" id="svg_6"/>
 </g>
</svg>