<svg width="55.000018119875456" height="50.99997248407136" xmlns="http://www.w3.org/2000/svg">
 <!-- Created with Method Draw - http://github.com/duopixel/Method-Draw/ -->

 <g>
  <title>background</title>
  <rect height="53" width="57" y="-1" x="-1" fill="#fff" id="canvas_background"/>
  <g display="none" id="canvasGrid">
   <rect height="100%" width="100%" y="0" x="0" stroke-width="0" fill="url(#gridpattern)" id="svg_4"/>
  </g>
 </g>
 <g>
  <title>Layer 1</title>
  <ellipse ry="10.3347" rx="10.7533" cy="25.5" cx="27.5" stroke-width="1.5" stroke="#3401bf" fill="#3401bf" id="svg_1"/>
  <ellipse rx="0.5" cy="142.52" cx="30.02" stroke-width="1.5" stroke="#000" fill="#fff" id="svg_2"/>
  <path d="m14.43307,2.73685" stroke-width="1.5" stroke="#4609ed" fill="#4609ed" opacity="0.5" id="svg_3"/>
  <path d="m23.03587,26.86842" stroke-width="1.5" stroke="#4609ed" fill="#4609ed" opacity="0.5" id="svg_5"/>
  <path d="m25.3291,29.085058c-0.51111,-0.199297 -0.444254,-0.320038 0.79937,-1.43767c0.628355,-0.564516 1.142372,-1.042717 1.142372,-1.062746c0,-0.019999 -1.73439,-0.036564 -3.854414,-0.036564l-3.853928,0l0,-1.056944l0,-1.057028l3.884447,0c2.995457,0 3.851509,-0.031773 3.738628,-0.138905c-0.080421,-0.07649 -0.627872,-0.584267 -1.217464,-1.128122c-1.11088,-1.025436 -1.110395,-1.300303 0.001938,-1.385418c0.553261,-0.042444 9.171461,3.216188 9.467451,3.580097c-2.870461,1.298744 -6.301945,2.65836 -9.462606,3.856991c-0.166656,0 -0.457336,-0.060148 -0.645794,-0.133692z" transform="rotate(-180 27.5 25.5)" stroke-width="1.5" stroke="#ffffff" fill="#ffffff" id="svg_7"/>
 </g>
</svg>